<svg width="25" height="24" viewBox="0 0 25 24" fill="none" xmlns="http://www.w3.org/2000/svg">
<rect x="0.5" width="24" height="24" rx="7" fill="#FF3B30" fill-opacity="0.66"/>
<path fill-rule="evenodd" clip-rule="evenodd" d="M10.8671 4.06132C10.1671 4.56707 5.5 8.15805 5.5 13.9996C5.5 14.9188 5.68106 15.8291 6.03284 16.6784C6.38463 17.5277 6.90024 18.2993 7.55025 18.9493C8.20026 19.5993 8.97194 20.115 9.82122 20.4667C10.646 20.8084 11.5282 20.989 12.4203 20.9991C10.248 20.9567 8.5 19.1824 8.5 16.9999C8.5 16.8024 8.51432 16.6082 8.54197 16.4184C8.54315 16.4071 8.54459 16.3957 8.54628 16.3843C8.8817 14.1305 10.9553 12.2171 11.9581 11.4101C12.2785 11.1523 12.7216 11.1523 13.0421 11.4101C14.0448 12.2171 16.1183 14.1305 16.4537 16.3843C16.4554 16.3957 16.4569 16.4071 16.458 16.4184C16.4857 16.6082 16.5 16.8024 16.5 16.9999C16.5 19.1824 14.752 20.9567 12.5797 20.9991C13.4718 20.989 14.354 20.8084 15.1788 20.4667C16.0281 20.115 16.7997 19.5993 17.4497 18.9493C18.0998 18.2993 18.6154 17.5277 18.9672 16.6784C19.307 15.8579 19.4875 14.9804 19.4994 14.093C19.4998 14.0815 19.5 14.07 19.5 14.0584L19.4999 14.0268L19.5 13.9997L19.4999 13.9996L19.4998 13.9995C19.4734 9.75884 16.6044 7.4446 16.0813 7.05781C16.0323 7.02155 15.9671 7.02196 15.9181 7.05823C15.7083 7.21337 15.1241 7.67639 14.4967 8.44729C14.4251 8.53521 14.2845 8.5184 14.2361 8.41591C13.0573 5.92135 11.4243 4.40726 11.0386 4.07102C10.9888 4.02764 10.9206 4.02266 10.8671 4.06132Z" fill="#222222"/>
<path fill-rule="evenodd" clip-rule="evenodd" d="M8.54628 16.3844C8.8817 14.1306 10.9553 12.2172 11.9581 11.4102C12.2785 11.1523 12.7216 11.1523 13.0421 11.4102C14.0448 12.2172 16.1183 14.1306 16.4537 16.3844C16.4554 16.3958 16.4569 16.4071 16.458 16.4184C16.4857 16.6083 16.5 16.8025 16.5 17C16.5 19.2091 14.7091 21 12.5 21C10.2909 21 8.5 19.2091 8.5 17C8.5 16.8024 8.51432 16.6083 8.54197 16.4184C8.54315 16.4071 8.54459 16.3958 8.54628 16.3844Z" fill="#2A4157" fill-opacity="0.24"/>
</svg>
